<svg width="29" height="26" viewBox="0 0 29 26" fill="none" xmlns="http://www.w3.org/2000/svg">
<path d="M27.3929 0H1.60708C1.18184 0.00283474 0.774902 0.155547 0.474198 0.425143C0.173494 0.69474 0.00316182 1.05958 0 1.44083V24.5592C0.00316182 24.9404 0.173494 25.3053 0.474198 25.5749C0.774902 25.8445 1.18184 25.9972 1.60708 26H15.4908V15.9467H11.7208V12.0142H15.4908V9.12167C15.4908 5.76333 17.7746 3.9325 21.1338 3.9325C22.2575 3.9325 23.3813 3.9325 24.505 4.08417V7.58333H22.1971C20.3725 7.58333 20.0221 8.36333 20.0221 9.50083V12.0033H24.3721L23.8042 15.9358H20.0221V26H27.3929C27.8182 25.9972 28.2251 25.8445 28.5258 25.5749C28.8265 25.3053 28.9968 24.9404 29 24.5592V1.44083C28.9968 1.05958 28.8265 0.69474 28.5258 0.425143C28.2251 0.155547 27.8182 0.00283474 27.3929 0Z" fill="#62759F"/>
</svg>
