<svg width="28" height="26" viewBox="0 0 28 26" fill="none" xmlns="http://www.w3.org/2000/svg">
<path d="M14 9.90438C13.3407 9.9046 12.6963 10.0864 12.1482 10.4266C11.6001 10.7669 11.173 11.2505 10.9209 11.8162C10.6688 12.3818 10.6029 13.0042 10.7317 13.6046C10.8605 14.2051 11.1781 14.7565 11.6444 15.1893C12.1107 15.6222 12.7047 15.9169 13.3513 16.0362C13.998 16.1556 14.6682 16.0942 15.2773 15.8599C15.8864 15.6255 16.407 15.2288 16.7732 14.7197C17.1395 14.2107 17.335 13.6122 17.335 13C17.3343 12.179 16.9827 11.3918 16.3574 10.8113C15.7321 10.2309 14.8842 9.90468 14 9.90438ZM21.7944 7.52491C21.6247 7.12553 21.3684 6.7628 21.0414 6.4592C20.7145 6.15561 20.3238 5.91764 19.8937 5.76004C18.5812 5.27893 15.4563 5.38687 14 5.38687C12.5437 5.38687 9.42188 5.27487 8.10563 5.76004C7.67553 5.91764 7.28489 6.15561 6.95794 6.4592C6.63099 6.7628 6.37471 7.12553 6.205 7.52491C5.6875 8.74366 5.80312 11.6483 5.80312 12.9994C5.80312 14.3505 5.6875 17.2517 6.2075 18.4745C6.37721 18.8739 6.63349 19.2366 6.96044 19.5402C7.28739 19.8438 7.67803 20.0818 8.10812 20.2394C9.42062 20.7205 12.5456 20.6125 14.0025 20.6125C15.4594 20.6125 18.58 20.7246 19.8962 20.2394C20.3263 20.0818 20.717 19.8438 21.0439 19.5402C21.3709 19.2366 21.6272 18.8739 21.7969 18.4745C22.3188 17.2558 22.1987 14.3511 22.1987 13C22.1987 11.6489 22.3188 8.7483 21.7969 7.52549L21.7944 7.52491ZM14 17.7589C12.9864 17.7589 11.9955 17.4798 11.1527 16.9569C10.3099 16.434 9.65302 15.6907 9.26512 14.8212C8.87722 13.9516 8.77573 12.9947 8.97348 12.0716C9.17122 11.1484 9.65933 10.3005 10.3761 9.63493C11.0928 8.96938 12.006 8.51614 13.0002 8.33251C13.9943 8.14889 15.0248 8.24313 15.9613 8.60332C16.8977 8.96352 17.6981 9.57348 18.2613 10.3561C18.8244 11.1387 19.125 12.0588 19.125 13C19.1258 13.6252 18.9938 14.2443 18.7366 14.8221C18.4793 15.3998 18.1018 15.9247 17.6258 16.3668C17.1497 16.8088 16.5844 17.1593 15.9622 17.3982C15.3401 17.6371 14.6733 17.7597 14 17.7589ZM19.3363 9.15223C19.0996 9.15235 18.8683 9.0873 18.6715 8.96531C18.4747 8.84332 18.3213 8.66988 18.2306 8.46692C18.14 8.26395 18.1162 8.04059 18.1623 7.82508C18.2084 7.60956 18.3223 7.41158 18.4895 7.25618C18.6568 7.10077 18.87 6.99492 19.102 6.95201C19.3341 6.9091 19.5746 6.93107 19.7933 7.01512C20.0119 7.09918 20.1988 7.24156 20.3302 7.42424C20.4617 7.60692 20.5319 7.82171 20.5319 8.04143C20.5325 8.18734 20.5022 8.33193 20.4425 8.46692C20.3828 8.6019 20.2951 8.72462 20.1842 8.82804C20.0734 8.93146 19.9416 9.01354 19.7965 9.06957C19.6515 9.1256 19.4959 9.15448 19.3388 9.15455L19.3363 9.15223ZM25 0H3C2.20435 0 1.44129 0.293494 0.87868 0.815917C0.31607 1.33834 0 2.0469 0 2.78571L0 23.2143C0 23.9531 0.31607 24.6617 0.87868 25.1841C1.44129 25.7065 2.20435 26 3 26H25C25.7956 26 26.5587 25.7065 27.1213 25.1841C27.6839 24.6617 28 23.9531 28 23.2143V2.78571C28 2.0469 27.6839 1.33834 27.1213 0.815917C26.5587 0.293494 25.7956 0 25 0ZM23.93 16.8304C23.8494 18.3178 23.4837 19.6358 22.3144 20.7188C21.145 21.8017 19.7269 22.1482 18.1269 22.219C16.4762 22.3054 11.5275 22.3054 9.87687 22.219C8.275 22.1441 6.86062 21.804 5.68937 20.7188C4.51813 19.6335 4.15 18.3149 4.07375 16.8304C3.98062 15.2971 3.98062 10.7012 4.07375 9.16964C4.15438 7.68219 4.51562 6.3642 5.68937 5.28125C6.86312 4.1983 8.28125 3.85589 9.87687 3.78509C11.5275 3.69862 16.4762 3.69862 18.1269 3.78509C19.7288 3.85996 21.1475 4.20004 22.3144 5.28531C23.4813 6.37058 23.8538 7.68915 23.93 9.17661C24.0231 10.7041 24.0231 15.2959 23.93 16.8304Z" fill="#62759F"/>
</svg>
