<svg width="29" height="27" viewBox="0 0 29 27" fill="none" xmlns="http://www.w3.org/2000/svg">
<path d="M29 2.89286V24.1071C29 25.7042 27.6083 27 25.8929 27H9.99464C10.629 26.0116 11.4446 24.5893 11.7683 23.4261C11.9625 22.733 12.7587 19.9065 12.7587 19.9065C13.2766 20.8286 14.7913 21.606 16.4031 21.606C21.1998 21.606 24.65 17.5018 24.65 12.4031C24.65 7.5154 20.3647 3.85714 14.8496 3.85714C7.98795 3.85714 4.35 8.14219 4.35 12.8129C4.35 14.9826 5.59286 17.6826 7.57366 18.5444C7.8779 18.677 8.03326 18.6167 8.10446 18.3455C8.15625 18.1406 8.42812 17.1342 8.54464 16.6701C8.58348 16.5194 8.56406 16.3929 8.4346 16.2482C7.7808 15.5069 7.25 14.1449 7.25 12.8732C7.25 9.6067 9.90402 6.44866 14.4288 6.44866C18.3321 6.44866 21.0703 8.92567 21.0703 12.4694C21.0703 16.4712 18.9018 19.2435 16.073 19.2435C14.5129 19.2435 13.3478 18.0442 13.7167 16.5676C14.1634 14.8078 15.0308 12.9094 15.0308 11.6377C15.0308 8.44353 10.1435 8.88348 10.1435 13.1444C10.1435 14.4522 10.6161 15.3442 10.6161 15.3442C8.58348 23.3478 8.27924 23.4502 8.7 26.9518L8.84241 27H3.10714C1.39174 27 0 25.7042 0 24.1071V2.89286C0 1.29576 1.39174 0 3.10714 0H25.8929C27.6083 0 29 1.29576 29 2.89286Z" fill="#62759F"/>
</svg>
