<svg width="30" height="28" viewBox="0 0 30 28" fill="none" xmlns="http://www.w3.org/2000/svg">
<path d="M12.5089 10.6313L18.8839 14.0125L12.5089 17.3937V10.6313ZM30 3V25C30 26.6562 28.5603 28 26.7857 28H3.21429C1.43973 28 0 26.6562 0 25V3C0 1.34375 1.43973 0 3.21429 0H26.7857C28.5603 0 30 1.34375 30 3ZM27.1875 14.0187C27.1875 14.0187 27.1875 10.2938 26.6786 8.50625C26.3973 7.51875 25.5737 6.74375 24.5223 6.48125C22.6272 6 15 6 15 6C15 6 7.37277 6 5.47768 6.48125C4.42634 6.74375 3.60268 7.51875 3.32143 8.50625C2.8125 10.2875 2.8125 14.0187 2.8125 14.0187C2.8125 14.0187 2.8125 17.7437 3.32143 19.5312C3.60268 20.5187 4.42634 21.2625 5.47768 21.525C7.37277 22 15 22 15 22C15 22 22.6272 22 24.5223 21.5187C25.5737 21.2562 26.3973 20.5125 26.6786 19.525C27.1875 17.7437 27.1875 14.0187 27.1875 14.0187Z" fill="#62759F"/>
</svg>
